<?xml version="1.0" standalone="no"?>
<!DOCTYPE svg PUBLIC "-//W3C//DTD SVG 20010904//EN"
 "http://www.w3.org/TR/2001/REC-SVG-20010904/DTD/svg10.dtd">
<svg version="1.0" xmlns="http://www.w3.org/2000/svg"
 width="1280.000000pt" height="1247.000000pt" viewBox="0 0 1280.000000 1247.000000"
 preserveAspectRatio="xMidYMid meet">
<g transform="translate(0.000000,1247.000000) scale(0.100000,-0.100000)"
fill="#000000" stroke="none">
<path d="M6170 12446 c-156 -36 -268 -88 -410 -191 -53 -39 -3368 -3354 -5096
-5096 -468 -471 -509 -523 -589 -734 -30 -80 -75 -293 -75 -354 0 -84 44 -283
85 -386 112 -278 317 -435 654 -498 113 -21 145 -21 1169 -27 l1054 -5 23 -29
c45 -57 50 -100 46 -396 -3 -151 -5 -1029 -5 -1950 -1 -1587 0 -1681 17 -1780
35 -193 97 -353 191 -484 84 -118 238 -246 382 -319 147 -74 420 -145 644
-167 63 -6 148 -15 188 -21 43 -5 771 -9 1780 -9 1746 0 1897 3 2232 41 593
66 949 294 1079 689 58 179 54 29 60 2265 7 2269 1 2089 70 2148 42 35 79 41
219 34 64 -3 232 -11 372 -17 140 -5 367 -17 503 -25 287 -17 777 -20 928 -5
590 59 922 260 1048 637 24 71 61 286 61 354 0 25 -11 96 -25 157 -66 299
-204 506 -572 858 -261 251 -1257 1239 -3248 3225 -1606 1601 -1699 1691
-1930 1844 -211 140 -343 199 -545 241 -137 29 -185 29 -310 0z"/>
</g>
</svg>
